<svg xmlns="http://www.w3.org/2000/svg" width="16" height="16" viewBox="0 0 16 16" fill="none">
<path d="M6.44275 1.03139C5.16931 1.03139 4.1371 2.06361 4.1371 3.33704H12.6944C13.9678 3.33704 15 2.30483 15 1.03139H6.44275Z" fill="#04AB61"/>
<path d="M4.1371 3.33704C4.1371 2.06361 5.16931 1.03139 6.44275 1.03139V9.58886C6.44275 10.8621 5.41054 11.8945 4.1371 11.8945V3.33704Z" fill="#04AB61"/>
<path fill-rule="evenodd" clip-rule="evenodd" d="M7.17496 4.1055V6.41115H9.86441C11.1378 6.41115 12.1701 5.37893 12.1701 4.1055H7.17496Z" fill="#FBB016"/>
<path d="M1.02623 6.41115C1.02623 5.13793 2.05844 4.1055 3.33188 4.1055V12.663C3.33188 13.9364 2.29966 14.9686 1.02623 14.9686V6.41115Z" fill="#FBB016"/>
</svg>